<svg width="61" height="60" viewBox="0 0 61 60" fill="none" xmlns="http://www.w3.org/2000/svg">
<rect x="0.57605" width="60" height="60" rx="18" fill="url(#paint0_radial_12201_6877)"/>
<rect x="1.07605" y="0.5" width="59" height="59" rx="17.5" stroke="url(#paint1_linear_12201_6877)" stroke-opacity="0.4"/>
<path opacity="0.2" d="M44.0761 29.9999C44.0781 31.8932 43.6808 33.7656 42.9103 35.495C42.1398 37.2244 41.0132 38.7718 39.6042 40.0363C38.757 38.3701 37.4652 36.9708 35.8717 35.9937C34.2782 35.0165 32.4453 34.4995 30.5761 34.4999C31.6886 34.4999 32.7761 34.17 33.7011 33.552C34.6262 32.9339 35.3471 32.0554 35.7729 31.0275C36.1986 29.9997 36.31 28.8687 36.093 27.7776C35.8759 26.6864 35.3402 25.6841 34.5535 24.8975C33.7669 24.1108 32.7646 23.5751 31.6734 23.358C30.5823 23.141 29.4513 23.2524 28.4235 23.6781C27.3956 24.1039 26.5171 24.8248 25.899 25.7499C25.281 26.6749 24.9511 27.7624 24.9511 28.8749C24.9511 30.3668 25.5437 31.7975 26.5986 32.8524C27.6535 33.9073 29.0842 34.4999 30.5761 34.4999C28.7068 34.4995 26.8739 35.0165 25.2804 35.9937C23.6869 36.9708 22.3951 38.3701 21.5479 40.0363C19.8748 38.5315 18.6045 36.6322 17.8524 34.5113C17.1003 32.3904 16.8903 30.1151 17.2415 27.8924C17.5927 25.6696 18.4939 23.5699 19.8633 21.7842C21.2327 19.9985 23.0267 18.5834 25.0823 17.6677C27.1378 16.7519 29.3897 16.3645 31.6331 16.5407C33.8765 16.7169 36.0403 17.4511 37.9277 18.6766C39.815 19.902 41.3662 21.5798 42.44 23.5574C43.5138 25.535 44.0762 27.7496 44.0761 29.9999Z" fill="#919CFF"/>
<path d="M30.5761 15.375C27.6835 15.375 24.8559 16.2327 22.4508 17.8398C20.0458 19.4468 18.1712 21.7309 17.0643 24.4033C15.9574 27.0756 15.6678 30.0162 16.2321 32.8532C16.7964 35.6902 18.1893 38.2961 20.2346 40.3414C22.28 42.3868 24.8859 43.7797 27.7229 44.344C30.5598 44.9083 33.5004 44.6187 36.1728 43.5117C38.8452 42.4048 41.1293 40.5303 42.7363 38.1252C44.3433 35.7201 45.2011 32.8926 45.2011 30C45.197 26.1225 43.6548 22.4049 40.913 19.6631C38.1711 16.9213 34.4536 15.3791 30.5761 15.375ZM22.9936 39.7734C23.8074 38.5006 24.9286 37.4531 26.2537 36.7276C27.5788 36.002 29.0653 35.6217 30.5761 35.6217C32.0868 35.6217 33.5733 36.002 34.8984 36.7276C36.2235 37.4531 37.3447 38.5006 38.1586 39.7734C35.9906 41.4595 33.3225 42.3749 30.5761 42.3749C27.8296 42.3749 25.1615 41.4595 22.9936 39.7734ZM26.0761 28.875C26.0761 27.985 26.34 27.115 26.8344 26.3749C27.3289 25.6349 28.0317 25.0581 28.854 24.7175C29.6762 24.3769 30.581 24.2878 31.454 24.4615C32.3269 24.6351 33.1287 25.0637 33.758 25.693C34.3874 26.3224 34.816 27.1242 34.9896 27.9971C35.1632 28.87 35.0741 29.7748 34.7335 30.5971C34.3929 31.4193 33.8161 32.1221 33.0761 32.6166C32.3361 33.1111 31.4661 33.375 30.5761 33.375C29.3826 33.375 28.238 32.9009 27.3941 32.057C26.5502 31.2131 26.0761 30.0685 26.0761 28.875ZM39.8236 38.2139C38.5689 36.3957 36.8046 34.9891 34.7526 34.1709C35.8549 33.3028 36.6592 32.1127 37.0537 30.7663C37.4482 29.4198 37.4134 27.9838 36.954 26.6581C36.4946 25.3324 35.6335 24.1827 34.4904 23.3691C33.3473 22.5554 31.9791 22.1182 30.5761 22.1182C29.173 22.1182 27.8048 22.5554 26.6617 23.3691C25.5186 24.1827 24.6575 25.3324 24.1981 26.6581C23.7387 27.9838 23.7039 29.4198 24.0984 30.7663C24.4929 32.1127 25.2973 33.3028 26.3995 34.1709C24.3475 34.9891 22.5833 36.3957 21.3286 38.2139C19.7431 36.431 18.7068 34.2278 18.3446 31.8696C17.9823 29.5114 18.3094 27.0988 19.2866 24.9222C20.2637 22.7456 21.8493 20.8979 23.8522 19.6015C25.8552 18.3052 28.1902 17.6155 30.5761 17.6155C32.9619 17.6155 35.2969 18.3052 37.2999 19.6015C39.3029 20.8979 40.8884 22.7456 41.8655 24.9222C42.8427 27.0988 43.1698 29.5114 42.8076 31.8696C42.4453 34.2278 41.409 36.431 39.8236 38.2139Z" fill="#919CFF"/>
<defs>
<radialGradient id="paint0_radial_12201_6877" cx="0" cy="0" r="1" gradientUnits="userSpaceOnUse" gradientTransform="translate(30.576 30) rotate(90) scale(30)">
<stop stop-color="#21275D" stop-opacity="0"/>
<stop offset="1" stop-color="#21275D"/>
</radialGradient>
<linearGradient id="paint1_linear_12201_6877" x1="30.576" y1="0" x2="30.576" y2="60" gradientUnits="userSpaceOnUse">
<stop stop-color="white"/>
<stop offset="0.454845" stop-color="#383F76" stop-opacity="0"/>
<stop offset="1" stop-color="#E0E3FF"/>
</linearGradient>
</defs>
</svg>
