<svg width="61" height="60" viewBox="0 0 61 60" fill="none" xmlns="http://www.w3.org/2000/svg">
<rect x="0.57605" width="60" height="60" rx="18" fill="url(#paint0_radial_12201_6912)"/>
<rect x="1.07605" y="0.5" width="59" height="59" rx="17.5" stroke="url(#paint1_linear_12201_6912)" stroke-opacity="0.4"/>
<g clip-path="url(#clip0_12201_6912)">
<path opacity="0.2" d="M42.6131 43.2406H18.539C18.3259 43.2406 18.1166 43.1841 17.9325 43.0768C17.7484 42.9695 17.5961 42.8152 17.4911 42.6298C17.3861 42.4443 17.3323 42.2343 17.3351 42.0212C17.3378 41.8082 17.3971 41.5996 17.5069 41.417L22.093 33.7734C24.0836 33.4003 26.9078 33.5613 30.5746 35.4165C35.427 37.8736 38.8124 37.359 40.7308 36.5675L43.6408 41.417C43.7503 41.5993 43.8096 41.8074 43.8126 42.0201C43.8155 42.2328 43.7621 42.4425 43.6576 42.6278C43.5532 42.8131 43.4015 42.9675 43.218 43.0751C43.0346 43.1827 42.8258 43.2398 42.6131 43.2406Z" fill="#919CFF"/>
<path d="M44.6707 41.4007L35.3886 25.9256V17.3613H36.5923C36.9116 17.3613 37.2177 17.2344 37.4435 17.0087C37.6692 16.783 37.796 16.4768 37.796 16.1576C37.796 15.8383 37.6692 15.5322 37.4435 15.3064C37.2177 15.0807 36.9116 14.9539 36.5923 14.9539H24.5553C24.236 14.9539 23.9299 15.0807 23.7041 15.3064C23.4784 15.5322 23.3516 15.8383 23.3516 16.1576C23.3516 16.4768 23.4784 16.783 23.7041 17.0087C23.9299 17.2344 24.236 17.3613 24.5553 17.3613H25.759V25.9256L16.4769 41.4007C16.258 41.7657 16.1398 42.1822 16.1342 42.6078C16.1287 43.0333 16.2361 43.4527 16.4454 43.8233C16.6548 44.1938 16.9587 44.5022 17.326 44.7171C17.6934 44.932 18.1112 45.0456 18.5368 45.0464H42.6108C43.0368 45.0464 43.4552 44.9334 43.8232 44.7188C44.1912 44.5043 44.4957 44.1959 44.7056 43.8252C44.9155 43.4546 45.0232 43.0348 45.0179 42.6089C45.0126 42.1829 44.8943 41.766 44.6752 41.4007H44.6707ZM27.9949 26.878C28.1075 26.6914 28.1668 26.4776 28.1664 26.2596V17.3613H32.9812V26.2596C32.9808 26.4776 33.0402 26.6914 33.1527 26.878L38.9034 36.4701C37.0979 36.8267 34.5295 36.6762 31.117 34.9489C28.7231 33.7377 26.4451 33.0952 24.313 33.0215L27.9949 26.878ZM18.5368 42.639L22.831 35.48C24.9751 35.2197 27.3915 35.7584 30.0261 37.093C32.8849 38.5389 35.2923 39.0309 37.2483 39.0309C38.2431 39.0353 39.2335 38.8986 40.1899 38.6247L42.6108 42.639H18.5368Z" fill="#919CFF"/>
</g>
<defs>
<radialGradient id="paint0_radial_12201_6912" cx="0" cy="0" r="1" gradientUnits="userSpaceOnUse" gradientTransform="translate(30.576 30) rotate(90) scale(30)">
<stop stop-color="#21275D" stop-opacity="0"/>
<stop offset="1" stop-color="#21275D"/>
</radialGradient>
<linearGradient id="paint1_linear_12201_6912" x1="30.576" y1="0" x2="30.576" y2="60" gradientUnits="userSpaceOnUse">
<stop stop-color="white"/>
<stop offset="0.454845" stop-color="#383F76" stop-opacity="0"/>
<stop offset="1" stop-color="#E0E3FF"/>
</linearGradient>
<clipPath id="clip0_12201_6912">
<rect width="36" height="36" fill="white" transform="translate(12.576 12)"/>
</clipPath>
</defs>
</svg>
