<svg width="61" height="60" viewBox="0 0 61 60" fill="none" xmlns="http://www.w3.org/2000/svg">
<rect x="0.57605" width="60" height="60" rx="18" fill="url(#paint0_radial_12201_6888)"/>
<rect x="1.07605" y="0.5" width="59" height="59" rx="17.5" stroke="url(#paint1_linear_12201_6888)" stroke-opacity="0.4"/>
<g clip-path="url(#clip0_12201_6888)">
<path opacity="0.2" d="M40.701 18.75H20.451C20.1527 18.75 19.8665 18.8685 19.6556 19.0795C19.4446 19.2905 19.326 19.5766 19.326 19.875V40.125C19.326 40.4234 19.4446 40.7095 19.6556 40.9205C19.8665 41.1315 20.1527 41.25 20.451 41.25H40.701C40.9994 41.25 41.2856 41.1315 41.4965 40.9205C41.7075 40.7095 41.826 40.4234 41.826 40.125V19.875C41.826 19.5766 41.7075 19.2905 41.4965 19.0795C41.2856 18.8685 40.9994 18.75 40.701 18.75Z" fill="#919CFF"/>
<path fill-rule="evenodd" clip-rule="evenodd" d="M33.9511 14.25C34.5724 14.25 35.0761 14.7537 35.0761 15.375V17.625H40.7011C41.9437 17.625 42.9511 18.6324 42.9511 19.875V25.5H45.2011C45.8224 25.5 46.3261 26.0037 46.3261 26.625C46.3261 27.2463 45.8224 27.75 45.2011 27.75H42.9511V32.25H45.2011C45.8224 32.25 46.3261 32.7537 46.3261 33.375C46.3261 33.9963 45.8224 34.5 45.2011 34.5H42.9511V40.125C42.9511 41.3676 41.9437 42.375 40.7011 42.375H35.0761V44.625C35.0761 45.2463 34.5724 45.75 33.9511 45.75C33.3297 45.75 32.8261 45.2463 32.8261 44.625V42.375H28.3261V44.625C28.3261 45.2463 27.8224 45.75 27.2011 45.75C26.5797 45.75 26.0761 45.2463 26.0761 44.625V42.375H20.451C19.2084 42.375 18.201 41.3676 18.201 40.125V34.5H15.951C15.3297 34.5 14.826 33.9963 14.826 33.375C14.826 32.7537 15.3297 32.25 15.951 32.25H18.201V27.75H15.951C15.3297 27.75 14.826 27.2463 14.826 26.625C14.826 26.0037 15.3297 25.5 15.951 25.5H18.201V19.875C18.201 18.6324 19.2084 17.625 20.451 17.625H26.0761V15.375C26.0761 14.7537 26.5797 14.25 27.2011 14.25C27.8224 14.25 28.3261 14.7537 28.3261 15.375V17.625H32.8261V15.375C32.8261 14.7537 33.3297 14.25 33.9511 14.25ZM27.2011 19.875H20.451V26.625V33.375V40.125H27.2011H33.9511H40.7011V33.375V26.625V19.875H33.9511H27.2011ZM37.8061 33.5335C37.4263 33.5335 37.1151 33.4069 36.8725 33.1538C36.6298 32.9006 36.5085 32.5894 36.5085 32.2201C36.5085 31.8509 36.6298 31.5397 36.8725 31.2865C37.1151 31.0333 37.4263 30.9067 37.8061 30.9067C38.1753 30.9067 38.4813 31.0333 38.7239 31.2865C38.9665 31.5397 39.0879 31.8509 39.0879 32.2201C39.0879 32.5894 38.9665 32.9006 38.7239 33.1538C38.4813 33.4069 38.1753 33.5335 37.8061 33.5335ZM23.9253 25.732V33.3751H25.9983V28.8652C25.9983 28.5698 26.0616 28.3166 26.1882 28.1057C26.3148 27.8947 26.4889 27.7364 26.7104 27.6309C26.9319 27.5149 27.1798 27.4569 27.4541 27.4569C27.8656 27.4569 28.2084 27.5835 28.4827 27.8366C28.7675 28.0793 28.91 28.4221 28.91 28.8652V33.3751H30.9829V28.8652C30.9829 28.5698 31.0462 28.3166 31.1728 28.1057C31.2994 27.8947 31.4735 27.7364 31.695 27.6309C31.9271 27.5149 32.175 27.4569 32.4387 27.4569C32.8502 27.4569 33.193 27.5835 33.4673 27.8366C33.7522 28.0793 33.8946 28.4221 33.8946 28.8652V33.3751H35.9675V28.5329C35.9675 27.921 35.8357 27.3936 35.5719 26.9505C35.3082 26.5074 34.9495 26.1698 34.4959 25.9377C34.0423 25.6951 33.5306 25.5738 32.9609 25.5738C32.3913 25.5738 31.8744 25.7004 31.4102 25.9536C31.0411 26.1465 30.7287 26.4061 30.4731 26.7324C30.2365 26.3971 29.937 26.1322 29.5746 25.9377C29.142 25.6951 28.662 25.5738 28.1346 25.5738C27.5754 25.5738 27.0743 25.6951 26.6313 25.9377C26.3947 26.0617 26.1837 26.2141 25.9983 26.3952V25.732H23.9253Z" fill="#919CFF"/>
</g>
<defs>
<radialGradient id="paint0_radial_12201_6888" cx="0" cy="0" r="1" gradientUnits="userSpaceOnUse" gradientTransform="translate(30.576 30) rotate(90) scale(30)">
<stop stop-color="#21275D" stop-opacity="0"/>
<stop offset="1" stop-color="#21275D"/>
</radialGradient>
<linearGradient id="paint1_linear_12201_6888" x1="30.576" y1="0" x2="30.576" y2="60" gradientUnits="userSpaceOnUse">
<stop stop-color="white"/>
<stop offset="0.454845" stop-color="#383F76" stop-opacity="0"/>
<stop offset="1" stop-color="#E0E3FF"/>
</linearGradient>
<clipPath id="clip0_12201_6888">
<rect width="36" height="36" fill="white" transform="translate(12.576 12)"/>
</clipPath>
</defs>
</svg>
