<svg width="121" height="26" viewBox="0 0 121 26" fill="none" xmlns="http://www.w3.org/2000/svg">
<path d="M27.3704 25.5738H21.1888V15.5574C21.1888 14.9891 21.0286 14.5273 20.7081 14.1721C20.4104 13.8169 19.9411 13.6393 19.3 13.6393C18.3614 13.6393 17.5143 14.0893 16.7588 14.9891V25.5738H10.5772V15.5574C10.5772 14.2787 9.94765 13.6393 8.68845 13.6393C7.77268 13.6393 6.93703 14.0893 6.18151 14.9891V25.5738H0V8.41803H6.18151V10.3716C6.6165 9.80328 7.33768 9.27049 8.34504 8.77323C9.3524 8.25228 10.4628 7.9918 11.6762 7.9918C14.1488 7.9918 15.74 8.99818 16.4497 11.0109C16.9763 10.1822 17.7547 9.47177 18.7849 8.87978C19.8381 8.2878 20.9942 7.9918 22.2534 7.9918C23.8332 7.9918 25.0809 8.41803 25.9967 9.27049C26.9125 10.123 27.3704 11.4135 27.3704 13.1421V25.5738Z" fill="#E5EFFF"/>
<path d="M37.3796 6.14481C36.7157 6.83151 35.9029 7.17487 34.9414 7.17487C33.9798 7.17487 33.1556 6.83151 32.4688 6.14481C31.8048 5.43443 31.4728 4.58197 31.4728 3.58743C31.4728 2.5929 31.8048 1.75228 32.4688 1.06557C33.1556 0.355191 33.9798 0 34.9414 0C35.9029 0 36.7157 0.355191 37.3796 1.06557C38.0665 1.75228 38.4099 2.5929 38.4099 3.58743C38.4099 4.58197 38.0665 5.43443 37.3796 6.14481ZM38.0321 25.5738H31.8506V8.41803H38.0321V25.5738Z" fill="#E5EFFF"/>
<path d="M50.6792 26C48.0006 26 45.7798 25.1712 44.017 23.5137C42.2541 21.8561 41.3726 19.6776 41.3726 16.9781C41.3726 14.3024 42.2541 12.1357 44.017 10.4781C45.7798 8.82058 48.0006 7.9918 50.6792 7.9918C52.3963 7.9918 53.8616 8.32332 55.075 8.98634C56.2884 9.62568 57.1698 10.3716 57.7193 11.224L53.7357 15.0956C53.1175 14.1248 52.1903 13.6393 50.954 13.6393C50.0382 13.6393 49.2598 13.9353 48.6187 14.5273C48.0006 15.0956 47.6915 15.9126 47.6915 16.9781C47.6915 18.0437 48.0006 18.8725 48.6187 19.4645C49.2598 20.0565 50.0382 20.3525 50.954 20.3525C52.1445 20.3525 53.0717 19.8552 53.7357 18.8607L57.7193 22.7678C57.1698 23.6202 56.2884 24.378 55.075 25.041C53.8616 25.6803 52.3963 26 50.6792 26Z" fill="#E5EFFF"/>
<path d="M66.9556 25.5738H60.7741V8.41803H66.9556V10.3005C67.4822 9.6612 68.2263 9.10474 69.1878 8.63115C70.1723 8.15756 71.1224 7.92077 72.0382 7.92077V14.0301C71.6948 13.9117 71.2254 13.8525 70.6302 13.8525C68.8215 13.8525 67.5967 14.255 66.9556 15.0601V25.5738Z" fill="#E5EFFF"/>
<path d="M90.1585 23.3716C88.4644 25.1239 86.1978 26 83.3589 26C80.52 26 78.2534 25.1239 76.5592 23.3716C74.8879 21.6193 74.0523 19.4882 74.0523 16.9781C74.0523 14.4681 74.8879 12.3488 76.5592 10.6202C78.2534 8.86794 80.52 7.9918 83.3589 7.9918C86.1978 7.9918 88.4644 8.86794 90.1585 10.6202C91.8527 12.3488 92.6998 14.4681 92.6998 16.9781C92.6998 19.4882 91.8527 21.6193 90.1585 23.3716ZM83.3589 20.3525C84.2976 20.3525 85.0302 20.0446 85.5568 19.429C86.0833 18.7896 86.3466 17.9727 86.3466 16.9781C86.3466 16.0073 86.0833 15.214 85.5568 14.5984C85.0302 13.959 84.2976 13.6393 83.3589 13.6393C82.4431 13.6393 81.7219 13.959 81.1954 14.5984C80.6688 15.214 80.4055 16.0073 80.4055 16.9781C80.4055 17.9727 80.6688 18.7896 81.1954 19.429C81.7219 20.0446 82.4431 20.3525 83.3589 20.3525Z" fill="#E5EFFF"/>
<path d="M109.052 25.5738H102.115V11.0109L98.2339 14.9891L94.319 10.7623L103.076 1.88251H109.052V25.5738Z" fill="#E5EFFF"/>
<path d="M119.368 24.8634C118.635 25.6212 117.777 26 116.792 26C115.808 26 114.949 25.6212 114.217 24.8634C113.484 24.1057 113.118 23.2177 113.118 22.1995C113.118 21.1813 113.484 20.2933 114.217 19.5355C114.949 18.7778 115.808 18.3989 116.792 18.3989C117.777 18.3989 118.635 18.7778 119.368 19.5355C120.1 20.2933 120.467 21.1813 120.467 22.1995C120.467 23.2177 120.1 24.1057 119.368 24.8634Z" fill="#3444DA"/>
</svg>
