<svg width="196" height="36" viewBox="0 0 196 36" fill="none" xmlns="http://www.w3.org/2000/svg">
<path d="M27.114 6.19727V10.8753H26.1792C25.7113 10.7195 25.5555 11.0311 25.5555 11.3433C24.1521 16.1777 22.593 20.8563 21.0332 25.6836C20.7216 26.7754 20.4095 27.8671 19.9415 28.9589C19.9415 29.1147 19.6299 29.2705 19.4735 29.2705H12.2933L12.1375 28.8025L6.67872 11.3374C6.52293 10.8694 6.36713 10.8694 5.89974 10.8694H4.97559V6.19727H14.956V10.8753H12.9289L16.2041 23.8182H16.3599L19.9468 10.8753H17.9197V6.19727H27.114ZM42.8707 12.435H49.5764L49.7322 14.7743C50.2002 14.3063 50.5112 13.839 50.824 13.5268C52.6947 11.9676 54.8782 11.656 57.2175 12.435C58.9331 13.0588 59.7126 14.4621 59.7126 16.3335V24.5978H61.116V29.2758H53.6242V18.8286C53.6242 17.8932 53.3126 17.4252 52.6888 17.2694C51.9098 17.1136 51.2855 17.2694 50.8181 17.8932L50.5065 18.3612L50.3507 18.8292V24.5989H51.4424V29.277H42.8642V24.5972H44.1118V17.113H42.8642L42.8707 12.435ZM83.7271 16.9572H82.6354V12.2792H89.9649V24.5978H91.3682V29.2758H84.5067V27.5603C84.1951 27.8718 84.0387 28.184 83.7277 28.3392C82.0122 29.8984 79.0497 30.21 77.022 29.2746C75.4628 28.4956 74.6827 27.2475 74.6827 25.532L74.5269 17.7351V17.1113H73.1235V12.435H80.6088V22.4084C80.6088 22.8763 80.6088 23.3437 80.7646 23.6559C80.9204 24.2797 81.5436 24.5913 82.168 24.5913C82.7923 24.5913 83.2597 24.2797 83.5713 23.6559C83.7271 23.5001 83.7271 23.1879 83.7271 22.8769V16.9572ZM41.7724 21.9539H31.3252C31.3252 22.8893 31.3252 23.8247 31.7932 24.6048C32.1048 25.2286 32.885 25.5402 33.5087 25.5402C34.1325 25.5402 34.9121 25.2286 35.2243 24.4485C35.3801 24.1369 35.3801 23.8247 35.5359 23.3567H41.3056C41.1499 25.2274 40.3703 26.7872 38.8105 27.8789C37.7496 28.6365 36.5171 29.1187 35.2237 29.2823C33.5082 29.5939 31.6368 29.4381 29.9219 28.9707C27.5826 28.1917 26.0234 26.6314 25.3997 24.4485C24.6207 21.9534 24.6207 19.4583 25.3997 16.9632C26.335 14.0007 28.5185 12.2851 31.6374 11.8171C33.0408 11.6614 34.4441 11.6614 35.8481 12.1287C38.9669 13.0641 40.6825 15.0912 41.3068 18.3665C41.6184 19.614 41.6184 20.7058 41.7748 21.9534L41.7724 21.9539ZM31.4804 18.6787H35.5347C35.5347 17.7433 35.5347 16.9632 34.5993 16.4952C33.8203 16.0272 33.0402 16.0272 32.4158 16.4952C31.4804 16.9632 31.4804 17.7427 31.4804 18.6787ZM123.011 21.9539H112.57C112.57 22.8893 112.57 23.8247 113.037 24.6048C113.505 25.385 114.129 25.5402 114.908 25.5402C115.687 25.5402 116.312 25.0722 116.624 24.4485L116.935 23.5131H122.705C122.394 26.9436 119.898 29.2829 116.467 29.5951C114.752 29.7508 113.192 29.7508 111.633 29.1271C109.294 28.3481 107.735 26.7878 106.955 24.449C106.176 21.9539 106.176 19.6146 106.955 17.1195C107.89 14.0007 110.23 12.4415 113.348 11.9735C114.752 11.8177 116.311 11.8177 117.716 12.2851C120.678 13.2205 122.238 15.2476 122.862 18.0549C123.017 19.4583 123.017 20.7058 123.017 21.9534L123.011 21.9539ZM112.875 18.6787H116.929C116.929 16.9632 116.15 16.0278 114.745 16.1836C113.498 16.3394 112.718 17.2753 112.875 18.6787ZM61.8885 12.2786H63.7592V9.00337C63.7592 8.3796 63.915 8.22439 64.5382 8.068L69.3726 6.97625V12.278H72.0235V16.9561H69.3726V23.5066C69.5284 24.5984 70.308 25.0657 71.2433 24.9099C71.3991 24.9099 71.5549 24.9099 71.8671 24.7542V27.7166C71.8671 29.12 71.8671 29.12 70.4638 29.2758C69.0604 29.4316 67.6571 29.5874 66.0968 29.2758C64.0696 28.8078 63.1343 27.5603 63.1343 25.5331V16.9584H61.7309C61.8867 15.5551 61.8867 13.9959 61.8867 12.2804L61.8885 12.2786ZM92.6087 29.2764V24.5978H94.012V17.113H92.6087V12.435H99.158C99.158 13.214 99.3138 14.1506 99.3138 15.0859C99.4696 14.9301 99.4696 14.7743 99.4696 14.6179C99.9376 13.2146 101.029 12.4344 102.432 12.2786H104.616C104.696 12.2844 104.772 12.3191 104.83 12.3763C104.887 12.4335 104.921 12.5095 104.927 12.5902V17.7362C104.148 17.7362 103.212 17.5804 102.432 17.7362C100.717 18.0478 99.937 18.9838 99.7812 20.6987V24.4414H101.652V29.1194C98.8453 29.2752 95.727 29.2752 92.6075 29.2752L92.6087 29.2764ZM136.484 6.36427C137.42 6.52007 138.355 6.52007 139.135 6.83225C142.722 7.76762 144.594 12.1341 142.722 15.4087C142.254 16.1877 141.63 16.6563 140.851 17.1243C140.54 17.2801 140.228 17.4359 139.76 17.748C139.915 17.9038 140.071 17.9038 140.228 17.9038C142.723 18.6828 143.814 20.5547 143.97 22.894C144.282 26.3245 142.099 28.819 138.668 29.1318C137.577 29.2876 136.485 29.2876 135.549 29.2876H124.789V24.6096H126.817V10.8865H124.789V6.20907C128.844 6.36487 132.586 6.36487 136.485 6.36487L136.484 6.36427ZM133.054 20.0873V24.6096C133.06 24.6903 133.094 24.7663 133.151 24.8235C133.209 24.8807 133.285 24.9154 133.365 24.9212H136.016C136.64 24.9212 137.264 24.6096 137.575 23.9858C138.354 22.5824 137.575 20.7105 136.016 20.3989C135.081 20.0873 134.146 20.0873 133.054 20.0873ZM133.054 15.7203C133.989 15.7203 134.769 15.7203 135.705 15.5645C136.796 15.4087 137.42 14.4728 137.42 13.381C137.42 12.2893 136.796 11.3539 135.861 11.1975C134.926 11.0411 133.99 11.0417 133.054 11.0417L133.054 15.7203ZM190.128 17.2795H187.788C187.708 17.2852 187.632 17.3199 187.575 17.3771C187.517 17.4344 187.483 17.5103 187.477 17.5911V23.516C187.477 24.7636 188.256 25.3868 189.66 25.0752H189.972V28.8178C189.972 29.1294 189.972 29.2858 189.66 29.2858C187.945 29.5974 186.23 29.7538 184.359 29.4416C182.331 28.9736 181.396 27.8825 181.396 25.8548V17.1243H180.778C179.842 17.1243 179.999 17.2801 179.999 16.3453V12.4527H181.869V9.33385C181.869 8.24209 181.714 8.39848 182.805 8.24209C184.377 7.93519 185.937 7.57103 187.483 7.15034V12.4521H190.289C190.134 14.1677 190.134 15.7274 190.134 17.2865L190.128 17.2795ZM171.727 18.995V17.4359C171.727 16.5005 171.104 15.8767 170.324 15.8767C169.544 15.8767 168.765 16.5005 168.765 17.2801V17.9038H163.151C162.995 15.7203 164.086 13.8496 166.113 12.9136C169.076 11.6661 172.195 11.6661 175.158 13.0694C177.029 14.0048 177.964 15.4087 177.964 17.4364V24.4591H179.368V29.1371H172.345C172.345 28.5133 172.189 28.0453 172.189 27.2664C172.034 27.4222 171.878 27.578 171.878 27.7343C170.007 29.9179 166.576 29.9179 164.705 28.9819C163.301 28.2029 162.678 26.7984 162.521 25.2392C162.365 21.8088 164.08 19.6253 167.667 19.0015L171.41 18.6899C171.254 19.0015 171.41 19.0015 171.721 19.0015L171.727 18.995ZM171.727 21.9575H170.324C168.921 22.1133 168.297 23.205 168.453 24.4526C168.609 25.5443 169.545 26.1681 170.637 25.7001C171.26 25.5443 171.572 25.0764 171.728 24.4526L171.727 21.9575ZM161.747 22.1133H151.299C151.299 23.205 151.299 24.1404 151.923 24.92C152.391 25.5438 153.015 25.699 153.794 25.699C154.573 25.699 155.041 25.231 155.353 24.6072L155.664 23.6718H161.434C161.278 25.5426 160.499 27.1023 158.939 28.1941C157.068 29.5974 155.041 29.9096 152.857 29.7532C151.922 29.7532 151.142 29.5974 150.206 29.2852C147.867 28.6615 146.463 27.1017 145.684 24.9182C144.905 22.2673 144.749 19.6164 145.84 16.9655C146.931 14.1588 149.115 12.5985 152.077 12.2875C153.481 12.1317 155.04 12.2875 156.444 12.5991C159.407 13.5344 160.967 15.718 161.59 18.681C161.59 19.7728 161.746 20.8646 161.746 22.1115L161.747 22.1133ZM155.665 18.9944C155.665 18.059 155.509 17.1237 154.73 16.6551C153.95 16.1865 153.17 16.1871 152.39 16.8109C151.766 17.2789 151.611 18.0584 151.611 18.9944H155.665Z" fill="#DDE0F4"/>
</svg>
