<svg width="225" height="20" viewBox="0 0 225 20" fill="none" xmlns="http://www.w3.org/2000/svg">
<g clip-path="url(#clip0_11431_3991)">
<path fill-rule="evenodd" clip-rule="evenodd" d="M0.177917 0.536609H8.25334C12.745 0.536609 15.0936 2.85891 15.0936 5.7108C15.0936 7.67949 13.9834 9.01662 12.444 9.72384V9.77483C14.4127 10.482 15.5229 12.0461 15.5229 14.0395C15.5229 16.8914 13.3272 19.3897 8.58228 19.3897H0.177917V0.536609ZM8.0017 8.00679C9.33883 8.00679 9.94572 7.32588 9.94572 6.56768C9.94572 5.80948 9.34048 5.10391 8.0017 5.10391H5.63006V8.00679H8.0017ZM8.07736 14.8207C9.49014 14.8207 10.1727 14.1398 10.1727 13.2566C10.1727 12.3734 9.46547 11.6925 8.10367 11.6925H5.63006V14.8224H8.07736V14.8207ZM16.6824 11.7172V0.536609H22.1839V11.6662C22.1839 13.7616 23.2184 14.8717 24.9848 14.8717C26.7512 14.8717 27.8613 13.7616 27.8613 11.6415V0.536609H33.3891V11.7172C33.3891 16.4621 30.2099 19.8699 24.9848 19.8699C19.7596 19.8699 16.6807 16.4621 16.6807 11.7172H16.6824ZM47.3969 1.44448V6.28973C46.2111 5.45752 44.1914 4.87694 42.5517 4.87694C41.0632 4.87694 40.305 5.35719 40.305 5.98711C40.305 6.61702 41.1372 6.94596 42.6273 7.47555C45.1519 8.35875 48.5827 9.54457 48.5827 13.5576C48.5827 17.1414 45.8822 19.791 41.1372 19.791C38.6899 19.791 36.4433 19.0838 35.0552 18.1512V13.0527C36.4186 14.1629 38.4877 15.0461 40.481 15.0461C42.1718 15.0461 42.9546 14.4145 42.9546 13.7089C42.9546 12.8011 41.6668 12.3965 40.1274 11.8406C38.1077 11.1087 34.9039 9.79621 34.9039 6.13677C34.9039 2.83095 37.5041 0.130371 42.1471 0.130371C44.1914 0.130371 46.0335 0.659961 47.3969 1.44283V1.44448ZM49.9955 0.536609H55.497V19.3897H49.9955V0.536609ZM75.0573 19.3897H69.8075L63.0182 9.26991H62.9935V19.3897H57.77V0.536609H63.0198L69.8091 10.4804H69.8338V0.536609H75.0573V19.3897ZM77.3286 0.536609H90.3513V5.43285H82.8301V7.70416H89.5931V12.1465H82.8301V14.4934H90.3513V19.3897H77.3286V0.536609ZM104.157 1.44448V6.28973C102.971 5.45752 100.951 4.87694 99.3115 4.87694C97.8231 4.87694 97.0649 5.35719 97.0649 5.98711C97.0649 6.61702 97.8971 6.94596 99.3872 7.47555C101.912 8.35875 105.343 9.54457 105.343 13.5576C105.343 17.1414 102.642 19.791 97.8971 19.791C95.4498 19.791 93.2032 19.0838 91.815 18.1512V13.0527C93.1785 14.1629 95.2475 15.0461 97.2409 15.0461C98.9316 15.0461 99.7145 14.4145 99.7145 13.7089C99.7145 12.8011 98.4267 12.3965 96.8873 11.8406C94.8676 11.1087 91.6637 9.79621 91.6637 6.13677C91.6637 2.83095 94.264 0.130371 98.9069 0.130371C100.951 0.130371 102.793 0.659961 104.157 1.44283V1.44448ZM118.719 1.44448V6.28973C117.533 5.45752 115.513 4.87694 113.874 4.87694C112.385 4.87694 111.627 5.35719 111.627 5.98711C111.627 6.61702 112.459 6.94596 113.949 7.47555C116.474 8.35875 119.905 9.54457 119.905 13.5576C119.905 17.1414 117.204 19.791 112.459 19.791C110.012 19.791 107.765 19.0838 106.377 18.1512V13.0527C107.741 14.1629 109.81 15.0461 111.803 15.0461C113.494 15.0461 114.277 14.4145 114.277 13.7089C114.277 12.8011 112.989 12.3965 111.449 11.8406C109.43 11.1087 106.226 9.79621 106.226 6.13677C106.226 2.83095 108.826 0.130371 113.469 0.130371C115.513 0.130371 117.355 0.659961 118.719 1.44283V1.44448ZM126.279 19.4259H131.781V0.574437H126.279V19.4275V19.4259ZM151.338 0.574437H146.114V10.5182H146.09L139.3 0.574437H134.051V19.4275H139.274V9.30773H139.299L146.088 19.4275H151.338V0.574437ZM160.193 0.169844C155.548 0.169844 152.95 2.87042 152.95 6.17625C152.95 9.83568 156.155 11.1481 158.173 11.88C159.713 12.4359 161.001 12.8389 161.001 13.7484C161.001 14.4556 160.218 15.0855 158.527 15.0855C156.534 15.0855 154.463 14.2023 153.101 13.0922V18.1907C154.489 19.1249 156.736 19.8305 159.183 19.8305C163.928 19.8305 166.629 17.1809 166.629 13.5971C166.629 9.58404 163.196 8.39822 160.673 7.51502C159.185 6.98543 158.351 6.68281 158.351 6.02658C158.351 5.37035 159.107 4.91642 160.598 4.91642C162.237 4.91642 164.257 5.49699 165.443 6.3292V1.48231C164.079 0.699433 162.237 0.169844 160.193 0.169844ZM167.913 19.4259H173.415V0.574437H167.913V19.4275V19.4259ZM181.187 14.454H182.248C185.1 14.454 186.942 12.8389 186.942 10.0117C186.942 7.18444 185.1 5.54469 182.248 5.54469H181.187V14.454ZM192.495 10.0117C192.495 15.6908 188.204 19.4259 182.046 19.4259H175.686V0.574437H182.046C188.204 0.574437 192.495 4.3342 192.495 10.0133V10.0117ZM193.986 19.4259H207.009V14.5296H199.488V12.1827H206.251V7.74035H199.488V5.46903H207.009V0.574437H193.986V19.4275V19.4259ZM215.668 9.48207C217.056 9.48207 218.142 8.82584 218.142 7.51338C218.142 6.20092 217.056 5.54469 215.644 5.54469H214.482V9.48207H215.668ZM224.678 19.4259H218.191L214.607 13.5954H214.481V19.4259H208.979V0.574437H215.693C220.413 0.574437 223.693 2.66977 223.693 7.13675C223.693 8.90314 222.91 11.4771 219.78 12.7895L224.676 19.4275L224.678 19.4259Z" fill="#DDE0F4"/>
</g>
<defs>
<clipPath id="clip0_11431_3991">
<rect width="224.5" height="19.7363" fill="white" transform="translate(0.177917 0.131836)"/>
</clipPath>
</defs>
</svg>
