<svg width="106" height="40" viewBox="0 0 106 40" fill="none" xmlns="http://www.w3.org/2000/svg">
<g clip-path="url(#clip0_11225_1807)">
<path d="M43.2916 30.2294C43.2916 29.3827 43.8436 29.0043 44.5852 29.0043C44.982 29.0043 45.2752 29.0944 45.5339 29.2205V26.5001C45.1372 26.3019 44.5852 26.1938 44.016 26.1938C41.584 26.1938 40.1524 27.6892 40.1524 30.1573V30.3915H38.9967V33.0399H40.1524V39.3995H43.2916V33.0399H45.4132V30.3915H43.2916V30.2294Z" fill="#DDE0F4"/>
<path d="M49.8288 39.3993V30.3913H46.6723V39.3993H49.8288ZM50.0185 27.8511C50.0185 26.8782 49.2423 26.0315 48.2419 26.0315C47.276 26.0315 46.4825 26.8602 46.4825 27.8511C46.4825 28.842 47.276 29.6707 48.2419 29.6707C49.2423 29.6707 50.0185 28.824 50.0185 27.8511Z" fill="#DDE0F4"/>
<path d="M54.2734 34.6071C54.2734 33.6703 54.7219 33.1478 55.4118 33.1478C56.1018 33.1478 56.5157 33.6523 56.5157 34.5711V39.3993H59.6722V33.6703C59.6722 31.4903 58.5338 30.1392 56.671 30.1392C55.6188 30.1392 54.7564 30.6076 54.2734 31.4903V30.3914H51.1169V39.3993H54.2734V34.6071Z" fill="#DDE0F4"/>
<path d="M64.8341 30.2114C62.2252 30.2114 60.5518 32.5715 60.5518 34.9316C60.5518 37.5619 62.3871 39.6517 64.7982 39.6517C66.5975 39.6517 67.2812 38.5528 67.2812 38.5528V39.4175H70.322V30.4276H67.2812V31.2383C67.2812 31.2383 66.5075 30.2114 64.8341 30.2114ZM65.4819 33.112C66.7054 33.112 67.3172 34.0668 67.3172 34.9316C67.3172 35.8684 66.6514 36.7872 65.4819 36.7872C64.5283 36.7872 63.6466 35.9945 63.6466 34.9676C63.6466 33.9407 64.3483 33.112 65.4819 33.112Z" fill="#DDE0F4"/>
<path d="M74.9716 34.6071C74.9716 33.6703 75.4201 33.1478 76.11 33.1478C76.8 33.1478 77.2139 33.6523 77.2139 34.5711V39.3993H80.3704V33.6703C80.3704 31.4903 79.232 30.1392 77.3692 30.1392C76.317 30.1392 75.4546 30.6076 74.9716 31.4903V30.3914H71.8151V39.3993H74.9716V34.6071Z" fill="#DDE0F4"/>
<path d="M81.3019 34.8953C81.3019 37.8139 83.3027 39.6515 85.9072 39.6515C86.5799 39.6515 87.3044 39.5074 87.9771 39.1471V36.1565C87.4941 36.5168 86.9767 36.6969 86.4075 36.6969C85.3035 36.6969 84.4929 35.9763 84.4929 34.8953C84.4929 33.8144 85.3035 33.0938 86.4075 33.0938C86.9594 33.0938 87.4769 33.2559 87.9771 33.5982V30.6076C87.3734 30.3013 86.6317 30.1392 85.959 30.1392C83.251 30.1392 81.3019 32.1389 81.3019 34.8953Z" fill="#DDE0F4"/>
<path d="M94.8438 36.2285C94.5161 36.787 94.1021 37.0212 93.4122 37.0212C92.5842 37.0212 91.8943 36.4988 91.8253 35.7241H97.7933C97.8105 35.5619 97.8278 35.3457 97.8278 35.0575C97.8278 32.0849 96.0167 30.1392 93.3259 30.1392C90.7214 30.1392 88.7378 32.175 88.7378 34.8953C88.7378 37.7238 90.6696 39.6515 93.4294 39.6515C95.3785 39.6515 96.8446 38.7868 97.5518 37.2194L94.8438 36.2285ZM91.8425 33.8324C91.9115 33.1658 92.498 32.6614 93.3087 32.6614C94.1193 32.6614 94.7058 33.1298 94.7748 33.8324H91.8425Z" fill="#DDE0F4"/>
<path d="M0.855835 7.39673H7.06687L10.6835 16.6495L14.347 7.39673H20.3945L11.2884 29.301H5.20257L7.69523 23.4967L0.855835 7.39673Z" fill="#DDE0F4"/>
<path d="M26.6944 7.02832C22.0278 7.02832 19.0776 11.2136 19.0776 15.3814C19.0776 20.0715 22.3121 23.7898 26.6059 23.7898C29.8089 23.7898 31.0166 21.8384 31.0166 21.8384V23.3585H36.4338V7.39676H31.0166V8.84783C31.0166 8.84783 29.6692 7.02832 26.6944 7.02832ZM27.8467 12.1578C29.9999 12.1578 31.111 13.8616 31.111 15.399C31.111 17.0544 29.9206 18.679 27.8467 18.679C26.1278 18.679 24.5745 17.2743 24.5745 15.4694C24.5745 13.639 25.8239 12.1578 27.8467 12.1578Z" fill="#DDE0F4"/>
<path d="M38.2994 23.3584V0.348633H43.9655V8.90311C43.9655 8.90311 45.3113 7.03031 48.1299 7.03031C51.5777 7.03031 53.5978 9.59921 53.5978 13.2701V23.3584H47.9732V14.652C47.9732 13.4097 47.3814 12.2096 46.041 12.2096C44.6766 12.2096 43.9655 13.4279 43.9655 14.652V23.3584H38.2994Z" fill="#DDE0F4"/>
<path d="M63.2583 7.03027C57.9141 7.03027 54.7319 11.094 54.7319 15.4479C54.7319 20.4027 58.5848 23.7899 63.2785 23.7899C67.8278 23.7899 71.8087 20.5564 71.8087 15.531C71.8087 10.0323 67.6406 7.03027 63.2583 7.03027ZM63.3093 12.2048C65.197 12.2048 66.5032 13.7771 66.5032 15.4538C66.5032 16.8839 65.2861 18.6477 63.3093 18.6477C61.4979 18.6477 60.1386 17.1948 60.1386 15.4382C60.1386 13.746 61.2687 12.2048 63.3093 12.2048Z" fill="#DDE0F4"/>
<path d="M81.2481 7.03027C75.9039 7.03027 72.7217 11.094 72.7217 15.4479C72.7217 20.4027 76.5746 23.7899 81.2683 23.7899C85.8176 23.7899 89.7985 20.5564 89.7985 15.531C89.7985 10.0323 85.6304 7.03027 81.2481 7.03027ZM81.2991 12.2048C83.1868 12.2048 84.493 13.7771 84.493 15.4538C84.493 16.8839 83.2759 18.6477 81.2991 18.6477C79.4877 18.6477 78.1284 17.1948 78.1284 15.4382C78.1284 13.746 79.2586 12.2048 81.2991 12.2048Z" fill="#DDE0F4"/>
<path d="M94.2694 23.6973C96.3474 23.6973 98.0319 22.0128 98.0319 19.9349C98.0319 17.8569 96.3474 16.1724 94.2694 16.1724C92.1914 16.1724 90.5069 17.8569 90.5069 19.9349C90.5069 22.0128 92.1914 23.6973 94.2694 23.6973Z" fill="#DDE0F4"/>
<path d="M99.2683 14.7902H92.4948L98.5064 0.348633H105.255L99.2683 14.7902Z" fill="#DDE0F4"/>
</g>
<defs>
<clipPath id="clip0_11225_1807">
<rect width="104.399" height="39.3029" fill="white" transform="translate(0.927917 0.348633)"/>
</clipPath>
</defs>
</svg>
